<svg width="1108" height="336" viewBox="0 0 1108 336" fill="none" xmlns="http://www.w3.org/2000/svg">
<g clip-path="url(#clip0_7_283)">
<path fill-rule="evenodd" clip-rule="evenodd" d="M156.625 0C243.124 0.00102886 313.249 71.9211 313.249 160.636C313.248 249.351 243.123 321.272 156.625 321.273C70.1248 321.273 0.00100323 249.352 0 160.636C0 71.9204 70.1242 0 156.625 0ZM177.956 39.2978C172.559 40.1439 163.331 43.2575 150.273 48.6397C137.215 54.0222 122.925 61.3028 107.412 70.489C78.3011 87.7266 60.6051 104.604 54.3222 121.117C48.0403 137.63 49.4141 153.921 58.4531 169.978C67.4909 186.033 78.1266 194.485 90.352 195.341C102.579 196.194 121.231 190.762 146.302 179.05L150.273 186.105C124.418 201.414 103.046 209.499 86.1647 210.357L127.502 283.79L135.603 282.516C141.192 281.555 150.613 278.331 163.861 272.836C176.917 267.454 191.01 260.282 206.138 251.324C232.378 235.787 248.942 218.927 255.822 200.755C262.701 182.582 261.288 164.878 251.587 147.647C241.997 130.612 229.788 121.397 214.955 119.997C200.122 118.598 181.909 122.984 160.313 133.161L156.342 126.116C168.217 119.084 180.414 113.291 192.927 108.754C205.355 104.527 215.023 102.202 221.928 101.767L186.049 38.0239L177.956 39.2978Z" fill="#4488FC"/>
<path d="M938.334 317.108C930.492 317.108 924.5 315.591 920.358 312.556V336H854.222V180.312H909.927L912.146 196.928C914.809 188.885 920.727 183.271 929.9 180.084C933.747 178.718 938.038 178.036 942.772 178.036C959.343 178.036 971.771 184.56 980.057 197.61C988.342 210.509 992.485 227.504 992.485 248.596C992.485 269.688 987.75 286.38 978.281 298.671C968.96 310.962 955.644 317.108 938.334 317.108ZM917.029 245.865V264.984C917.029 266.957 917.546 268.55 918.582 269.764C919.766 270.978 921.245 271.585 923.021 271.585C924.944 271.585 926.498 270.978 927.681 269.764C929.013 268.55 929.679 266.957 929.679 264.984V245.865C929.679 244.044 929.013 242.526 927.681 241.312C926.498 239.947 925.018 239.264 923.243 239.264C921.467 239.264 919.988 239.947 918.804 241.312C917.62 242.526 917.029 244.044 917.029 245.865Z" fill="#4488FC"/>
<path d="M838.42 228.794L837.31 256.79L842.859 256.562V308.231C840.195 310.507 835.609 312.556 829.099 314.377C822.589 316.197 816.449 317.108 810.679 317.108C804.909 317.108 800.322 316.577 796.919 315.515C793.516 314.452 791.001 313.314 789.374 312.1C787.746 310.735 786.488 309.217 785.601 307.548C784.269 305.12 783.603 303.072 783.603 301.403C775.466 311.873 762.52 317.108 744.766 317.108C720.353 317.108 708.147 306.486 708.147 285.242C708.147 272.496 712.882 263.467 722.351 258.156C731.82 252.693 748.391 249.431 772.063 248.368C772.063 243.057 766.367 240.402 754.974 240.402C747.281 240.402 739.883 241.388 732.781 243.361C725.828 245.334 720.797 247.306 717.69 249.279L712.808 252.238V192.375C714.139 191.313 716.137 190.023 718.8 188.506C721.463 186.837 727.751 184.712 737.664 182.133C747.577 179.401 758.451 178.036 770.288 178.036C793.96 178.036 811.197 182.133 821.997 190.327C832.946 198.521 838.42 211.343 838.42 228.794ZM775.614 264.984V255.88L762.964 259.521V264.984C762.964 266.957 763.556 268.55 764.739 269.764C766.071 270.978 767.624 271.585 769.4 271.585C771.323 271.585 772.803 270.978 773.838 269.764C775.022 268.55 775.614 266.957 775.614 264.984Z" fill="#4488FC"/>
<path d="M676.146 314.832H603.797L598.471 268.399H593.588L588.484 314.832H513.916L493.942 180.312H560.077L565.625 232.208H570.508L574.28 184.409H619.11L623.549 232.208H628.209L633.98 180.312H698.339L676.146 314.832Z" fill="#4488FC"/>
<path d="M426.293 178.036C437.982 178.036 448.486 178.718 457.807 180.084C467.276 181.45 473.786 182.815 477.337 184.181L482.442 186.23V243.133C472.381 237.822 457.363 235.167 437.39 235.167V240.63C455.736 242.45 468.312 245.713 475.118 250.417C481.924 255.121 485.327 263.694 485.327 276.137C485.327 288.58 480.814 298.519 471.789 305.955C462.764 313.39 447.007 317.108 424.518 317.108C412.534 317.108 401.881 316.425 392.56 315.059C383.239 313.694 376.877 312.328 373.474 310.962L368.37 308.914V259.521C372.512 261.646 378.874 263.619 387.456 265.439C396.185 267.109 405.136 267.943 414.309 267.943V262.48C398.478 260.963 386.494 257.245 378.357 251.327C370.219 245.409 366.15 235.85 366.15 222.648C366.15 209.295 371.107 198.521 381.02 190.327C390.933 182.133 406.024 178.036 426.293 178.036Z" fill="#4488FC"/>
<path d="M1030.96 213.151C1024.52 213.151 1018.51 212.719 1012.91 211.855C1007.32 210.991 1002.91 209.954 999.693 208.745L1003.76 171.169C1006.81 171.86 1010.12 172.379 1013.68 172.724C1017.24 173.243 1020.71 173.502 1024.1 173.502C1043.09 171.169 1051.94 157.468 1056.13 129.188C1052.07 139.727 1046.3 147.415 1038.85 152.252C1031.39 156.917 1022.57 159.249 1012.4 159.249C996.642 159.249 984.438 153.461 975.794 141.886C967.15 130.138 962.828 113.64 962.828 92.3899V32.787H1028.28V95.2405C1028.28 110.616 1028.99 117.619 1032.49 118.304C1037.77 119.337 1040.13 116.916 1040.13 101.18C1040.13 85.4435 1040.19 54.441 1040.19 32.787H1108V132.298C1108 159.94 1101.3 180.326 1087.91 193.456C1074.52 206.586 1055.54 213.151 1030.96 213.151Z" fill="#4488FC"/>
<path d="M952.607 169.573H896.68L894.461 152.957C893.869 154.626 892.612 156.675 890.688 159.103C888.913 161.53 886.989 163.579 884.918 165.248C879.444 169.649 872.416 171.849 863.835 171.849C848.299 171.849 836.167 165.779 827.438 153.64C818.709 141.5 814.344 124.581 814.344 102.882C814.344 81.0307 818.783 63.8838 827.66 51.4409C836.537 38.9979 848.669 32.7765 864.057 32.7765C868.791 32.7765 873.008 33.3835 876.707 34.5974C880.405 35.6596 882.921 36.7218 884.252 37.784L886.249 39.3773V0H952.607V169.573ZM877.15 100.606V119.725C877.15 121.698 877.668 123.291 878.704 124.505C879.888 125.719 881.367 126.326 883.143 126.326C885.066 126.326 886.619 125.719 887.803 124.505C889.135 123.291 889.8 121.698 889.8 119.725V100.606C889.8 98.7847 889.135 97.2672 887.803 96.0533C886.619 94.6876 885.14 94.0048 883.364 94.0048C881.589 94.0048 880.109 94.6876 878.926 96.0533C877.742 97.2672 877.15 98.7847 877.15 100.606Z" fill="#4488FC"/>
<path d="M726.091 97.4189V169.573H663.285V35.0526H718.989L721.208 51.6684C721.8 49.9992 723.132 47.9507 725.203 45.5228C727.274 43.0949 729.494 41.0464 731.861 39.3772C738.371 34.9767 747.026 32.7764 757.827 32.7764C772.326 32.7764 783.201 36.8735 790.45 45.0676C797.848 53.2617 801.547 65.1735 801.547 80.8031V169.573H738.741V97.4189C738.741 95.598 738.075 94.0806 736.743 92.8666C735.56 91.5009 734.08 90.8181 732.305 90.8181C730.529 90.8181 729.05 91.5009 727.866 92.8666C726.683 94.0806 726.091 95.598 726.091 97.4189Z" fill="#4488FC"/>
<path d="M647.483 83.5344L646.373 111.531L651.921 111.303V162.972C649.258 165.248 644.672 167.297 638.162 169.117C631.652 170.938 625.512 171.849 619.742 171.849C613.971 171.849 609.385 171.318 605.982 170.256C602.579 169.193 600.064 168.055 598.436 166.841C596.809 165.476 595.551 163.958 594.664 162.289C593.332 159.861 592.666 157.813 592.666 156.143C584.529 166.614 571.583 171.849 553.828 171.849C529.416 171.849 517.21 161.227 517.21 139.983C517.21 127.236 521.945 118.208 531.414 112.897C540.883 107.434 557.453 104.171 581.126 103.109C581.126 97.7983 575.43 95.1428 564.037 95.1428C556.344 95.1428 548.946 96.1291 541.844 98.1018C534.89 100.074 529.86 102.047 526.753 104.02L521.871 106.979V47.1161C523.202 46.0539 525.199 44.7641 527.863 43.2467C530.526 41.5775 536.814 39.4531 546.727 36.8735C556.64 34.1421 567.514 32.7764 579.35 32.7764C603.023 32.7764 620.259 36.8735 631.06 45.0676C642.008 53.2617 647.483 66.084 647.483 83.5344ZM584.677 119.725V110.621L572.027 114.262V119.725C572.027 121.698 572.618 123.291 573.802 124.505C575.134 125.719 576.687 126.326 578.463 126.326C580.386 126.326 581.865 125.719 582.901 124.505C584.085 123.291 584.677 121.698 584.677 119.725Z" fill="#4488FC"/>
<path d="M441.607 169.573V97.419C441.607 95.5981 440.941 94.0806 439.609 92.8667C438.426 91.501 436.946 90.8182 435.171 90.8182C433.395 90.8182 431.916 91.501 430.732 92.8667C429.548 94.0806 428.957 95.5981 428.957 97.419V169.573H366.15V0H432.285V28.6794L430.066 48.2543C430.658 46.2816 431.694 44.309 433.173 42.3363C434.653 40.3636 437.834 38.3151 442.716 36.1907C447.599 33.9146 453.591 32.7765 460.692 32.7765C475.192 32.7765 486.066 36.8735 493.316 45.0677C500.714 53.2618 504.413 65.1736 504.413 80.8031V169.573H441.607Z" fill="#4488FC"/>
</g>
<defs>
<clipPath id="clip0_7_283">
<rect width="1108" height="336" fill="white"/>
</clipPath>
</defs>
</svg>
